# File created by Blade
# Date/Time:  Tue Sep 28 14:35:47 2010
#---------------------------------------------------------
:version 1.10
:name HOM
:units
  mass 1.0
  length 1.000000
  angle deg
:documentation
     Acclaim Skeleton File
:root
   axis xyz
   order TX TY TZ RX RY RZ
   position 0.000000 0.000000 0.000000
   orientation 0 0 0
:bonedata
   begin
      id 1
      name LeftUpLeg_dum
      direction 1.000000 0.000000 0.000000
      length 3.677894
      axis 0.0 0.0 0.0 xyz
   end
   begin
      id 2
      name RightUpLeg_dum
      direction -1.000000 0.000000 0.000000
      length 3.677894
      axis 0.0 0.0 0.0 xyz
   end
   begin
      id 3
      name Spine_dum
      direction 0.000000 1.000000 0.000000
      length 0.039370
      axis 0.0 0.0 0.0 xyz
   end
   begin
      id 4
      name LeftUpLeg
      direction 0.000000 -1.000000 0.000000
      length 18.389491
      axis 0.0 0.0 0.0 xyz
      dof rx ry rz
   end
   begin
      id 5
      name LeftLeg
      direction 0.000000 -1.000000 0.000000
      length 16.918313
      axis 0.0 0.0 0.0 xyz
      dof rx ry rz
   end
   begin
      id 6
      name LeftFoot
      direction 0.000000 -0.258819 0.965926
      length 6.436326
      axis 15.0 0.0 0.0 xyz
      dof rx ry rz
   end
   begin
      id 7
      name LeftToeBase
      direction 0.000000 0.000000 1.000000
      length 2.952750
      axis 0.0 0.0 0.0 xyz
      dof rx ry rz
   end
   begin
      id 8
      name RightUpLeg
      direction 0.000000 -1.000000 0.000000
      length 18.389491
      axis 0.0 0.0 0.0 xyz
      dof rx ry rz
   end
   begin
      id 9
      name RightLeg
      direction 0.000000 -1.000000 0.000000
      length 16.918313
      axis 0.0 0.0 0.0 xyz
      dof rx ry rz
   end
   begin
      id 10
      name RightFoot
      direction 0.000000 -0.258819 0.965926
      length 6.436326
      axis 15.0 0.0 0.0 xyz
      dof rx ry rz
   end
   begin
      id 11
      name RightToeBase
      direction 0.000000 0.000000 1.000000
      length 2.952750
      axis 0.0 0.0 0.0 xyz
      dof rx ry rz
   end
   begin
      id 12
      name Spine
      direction 0.000000 1.000000 0.000000
      length 9.194745
      axis 0.0 0.0 0.0 xyz
      dof rx ry rz
   end
   begin
      id 13
      name Spine1
      direction 0.000000 1.000000 0.000000
      length 0.000000
      axis 0.0 0.0 0.0 xyz
      dof rx ry rz
   end
   begin
      id 14
      name Spine1_dum1
      direction 0.000000 1.000000 0.000000
      length 9.194745
      axis 0.0 0.0 0.0 xyz
   end
   begin
      id 15
      name Spine1_dum2
      direction 0.000000 1.000000 0.000000
      length 9.194745
      axis 0.0 0.0 0.0 xyz
   end
   begin
      id 16
      name Spine1_dum3
      direction 0.000000 1.000000 0.000000
      length 9.194745
      axis 0.0 0.0 0.0 xyz
   end
   begin
      id 17
      name Neck
      direction 0.000000 1.000000 0.000000
      length 4.229598
      axis 0.0 0.0 0.0 xyz
      dof rx ry rz
   end
   begin
      id 18
      name Head
      direction 0.000000 1.000000 0.000000
      length 4.527550
      axis 0.0 0.0 0.0 xyz
      dof rx ry rz
   end
   begin
      id 19
      name LeftShoulder
      direction 1.000000 -0.000004 0.000000
      length 5.516839
      axis 0.0 0.0 -90.0 xyz
      dof rx ry rz
   end
   begin
      id 20
      name LeftArm
      direction 1.000000 -0.000004 0.000000
      length 11.033679
      axis 0.0 0.0 -90.0 xyz
      dof rx ry rz
   end
   begin
      id 21
      name LeftForeArm
      direction 1.000000 -0.000004 0.000000
      length 10.114232
      axis 0.0 0.0 -90.0 xyz
      dof rx ry rz
   end
   begin
      id 22
      name LeftHand
      direction 0.000000 0.000000 0.000000
      length 0.000000
      axis 0.0 0.0 -90.0 xyz
      dof rx ry rz
   end
   begin
      id 23
      name LeftHand_dum1
      direction 0.000000 0.000000 0.000000
      length 0.000000
      axis 0.0 0.0 -90.0 xyz
   end
   begin
      id 24
      name LeftHand_dum2
      direction 1.000000 -0.000004 0.000000
      length 3.937000
      axis 0.0 0.0 -90.0 xyz
   end
   begin
      id 25
      name LeftHandThumb
      direction 0.000000 0.000000 1.000000
      length 3.937000
      axis 0.0 0.0 -90.0 xyz
      dof rx ry rz
   end
   begin
      id 26
      name RightShoulder
      direction -1.000000 -0.000004 0.000000
      length 5.516839
      axis 0.0 0.0 90.0 xyz
      dof rx ry rz
   end
   begin
      id 27
      name RightArm
      direction -1.000000 -0.000004 0.000000
      length 11.033679
      axis 0.0 0.0 90.0 xyz
      dof rx ry rz
   end
   begin
      id 28
      name RightForeArm
      direction -1.000000 -0.000004 0.000000
      length 10.114232
      axis 0.0 0.0 90.0 xyz
      dof rx ry rz
   end
   begin
      id 29
      name RightHand
      direction 0.000000 0.000000 0.000000
      length 0.000000
      axis 0.0 0.0 90.0 xyz
      dof rx ry rz
   end
   begin
      id 30
      name RightHand_dum1
      direction 0.000000 0.000000 0.000000
      length 0.000000
      axis 0.0 0.0 90.0 xyz
   end
   begin
      id 31
      name RightHand_dum2
      direction -1.000000 -0.000004 0.000000
      length 5.393690
      axis 0.0 0.0 90.0 xyz
   end
   begin
      id 32
      name RightHandThumb
      direction 0.000000 0.000000 1.000000
      length 3.937000
      axis 0.0 0.0 90.0 xyz
      dof rx ry rz
   end
:hierarchy
   begin
      root LeftUpLeg_dum RightUpLeg_dum Spine_dum
      LeftUpLeg_dum LeftUpLeg
      RightUpLeg_dum RightUpLeg
      Spine_dum Spine
      LeftUpLeg LeftLeg
      LeftLeg LeftFoot
      LeftFoot LeftToeBase
      RightUpLeg RightLeg
      RightLeg RightFoot
      RightFoot RightToeBase
      Spine Spine1
      Spine1 Spine1_dum1 Spine1_dum2 Spine1_dum3
      Spine1_dum1 Neck
      Spine1_dum2 LeftShoulder
      Spine1_dum3 RightShoulder
      Neck Head
      LeftShoulder LeftArm
      LeftArm LeftForeArm
      LeftForeArm LeftHand
      LeftHand LeftHand_dum1 LeftHand_dum2
      LeftHand_dum1 LeftHandThumb
      RightShoulder RightArm
      RightArm RightForeArm
      RightForeArm RightHand
      RightHand RightHand_dum1 RightHand_dum2
      RightHand_dum1 RightHandThumb
   end

# File created by Blade
# Date/Time:  Tue Sep 28 14:35:42 2010
# Frame Rate: 200.000 fps
#------------------------------------------------------
:FULLY-SPECIFIED
:DEGREES
281
root  0.558424 37.130714 -64.267993 10.967710 -5.102195 2.838666
LeftUpLeg  -26.044492 3.199729 -5.606746
LeftLeg  17.259420 -0.000000 0.000000
LeftFoot  7.010799 13.677693 8.429879
LeftToeBase  -8.416768 0.000000 -0.000000
RightUpLeg  -7.740586 -13.893479 -6.981102
RightLeg  43.520381 -0.000000 0.000000
RightFoot  20.834944 1.612042 -15.851697
RightToeBase  -23.281628 0.000000 -0.000000
Spine  -14.625828 -2.586319 -8.085545
Spine1  16.186275 1.501628 1.714858
Neck  3.218062 1.639843 -3.099672
Head  -12.338622 3.287634 2.285320
LeftShoulder  -4.982936 -8.842805 -26.077038
LeftArm  3.406376 39.448009 -36.225482
LeftForeArm  29.703942 -0.000000 0.000000
LeftHand  4.165712 -10.649966 2.545817
LeftHandThumb  0.000000 -0.000000 0.000000
RightShoulder  4.403860 6.721332 24.051449
RightArm  1.227038 -48.080042 39.157242
RightForeArm  37.103591 -0.000000 0.000000
RightHand  7.364672 10.824503 1.191337
RightHandThumb  0.000000 -0.000000 0.000000
282
root  0.592521 37.158514 -64.077127 10.921429 -5.153383 2.798214
LeftUpLeg  -25.672962 3.411247 -5.683342
LeftLeg  17.204541 -0.000000 0.000000
LeftFoot  6.775879 13.551269 8.539964
LeftToeBase  -8.422514 0.000000 -0.000000
RightUpLeg  -8.288895 -13.673401 -6.968554
RightLeg  44.489581 -0.000000 0.000000
RightFoot  21.588124 1.630719 -16.188280
RightToeBase  -21.538350 0.000000 -0.000000
Spine  -14.663977 -2.594689 -8.077242
Spine1  16.084436 1.495635 1.793775
Neck  3.350603 1.868704 -3.208517
Head  -12.208912 3.487828 2.208464
LeftShoulder  -5.104979 -8.757325 -25.991128
LeftArm  3.419621 39.250758 -36.314370
LeftForeArm  30.009182 -0.000000 0.000000
LeftHand  4.258263 -10.652656 2.483704
LeftHandThumb  0.000000 -0.000000 0.000000
RightShoulder  4.364699 6.713703 24.026748
RightArm  1.106414 -48.362967 39.273331
RightForeArm  36.609298 -0.000000 0.000000
RightHand  7.322741 10.829630 1.370279
RightHandThumb  0.000000 -0.000000 0.000000
283
root  0.623549 37.187943 -63.889336 10.873789 -5.174017 2.762639
LeftUpLeg  -25.347052 3.571439 -5.739065
LeftLeg  17.226141 -0.000000 0.000000
LeftFoot  6.630855 13.459571 8.640645
LeftToeBase  -8.625976 0.000000 -0.000000
RightUpLeg  -8.786076 -13.453870 -6.939808
RightLeg  45.342071 -0.000000 0.000000
RightFoot  22.098616 1.588931 -16.309264
RightToeBase  -18.701947 0.000000 -0.000000
Spine  -14.689557 -2.597192 -8.067838
Spine1  16.000077 1.494309 1.867948
Neck  3.450885 1.897812 -3.307932
Head  -12.153373 3.480414 2.230318
LeftShoulder  -5.229508 -8.658490 -25.908902
LeftArm  3.422791 39.059442 -36.385387
LeftForeArm  30.396887 -0.000000 0.000000
LeftHand  4.301697 -11.097072 2.617618
LeftHandThumb  0.000000 -0.000000 0.000000
RightShoulder  4.324554 6.671188 24.022877
RightArm  1.004121 -48.598202 39.368408
RightForeArm  36.178677 -0.000000 0.000000
RightHand  7.160236 10.758784 1.517224
RightHandThumb  0.000000 -0.000000 0.000000
284
root  0.655328 37.215456 -63.703972 10.827929 -5.211470 2.716573
LeftUpLeg  -24.979673 3.783538 -5.807806
LeftLeg  17.164621 -0.000000 0.000000
LeftFoot  6.431226 13.314799 8.708402
LeftToeBase  -8.567078 0.000000 -0.000000
RightUpLeg  -9.304033 -13.261550 -6.923630
RightLeg  46.241805 -0.000000 0.000000
RightFoot  22.419825 1.622888 -16.421728
RightToeBase  -14.858462 0.000000 -0.000000
Spine  -14.721157 -2.613319 -8.046489
Spine1  15.915541 1.475755 1.949232
Neck  3.606534 1.705865 -3.384309
Head  -12.103653 3.290643 2.275853
LeftShoulder  -5.336634 -8.631684 -25.834564
LeftArm  3.385364 38.956226 -36.478693
LeftForeArm  30.771786 -0.000000 0.000000
LeftHand  4.444397 -11.434936 2.593732
LeftHandThumb  0.000000 -0.000000 0.000000
RightShoulder  4.289913 6.707691 24.011104
RightArm  0.863114 -48.917072 39.458374
RightForeArm  35.730934 -0.000000 0.000000
RightHand  7.102562 10.561289 1.667317
RightHandThumb  0.000000 -0.000000 0.000000
285
root  0.685494 37.241062 -63.518108 10.771065 -5.220392 2.672485
LeftUpLeg  -24.639023 3.933610 -5.853970
LeftLeg  17.175745 -0.000000 0.000000
LeftFoot  6.229634 13.244878 8.806705
LeftToeBase  -8.662646 0.000000 -0.000000
RightUpLeg  -9.817198 -13.084926 -6.888543
RightLeg  47.098349 -0.000000 0.000000
RightFoot  22.869916 1.434913 -16.414929
RightToeBase  -15.535766 0.000000 -0.000000
Spine  -14.746662 -2.627442 -8.026871
Spine1  15.839595 1.459345 2.023391
Neck  3.693846 1.951881 -3.494923
Head  -12.017630 3.485975 2.221484
LeftShoulder  -5.443423 -8.546428 -25.767194
LeftArm  3.392331 38.760976 -36.523812
LeftForeArm  31.110641 -0.000000 0.000000
LeftHand  4.586795 -11.509933 2.523750
LeftHandThumb  0.000000 -0.000000 0.000000
RightShoulder  4.243946 6.668569 24.019277
RightArm  0.763507 -49.146082 39.520123
RightForeArm  35.330404 -0.000000 0.000000
RightHand  7.031395 10.348142 1.793018
RightHandThumb  0.000000 -0.000000 0.000000
286
root  0.714477 37.266704 -63.332893 10.714009 -5.233171 2.623148
LeftUpLeg  -24.297846 4.170705 -5.921271
LeftLeg  17.181311 -0.000000 0.000000
LeftFoot  6.046294 13.093958 8.973586
LeftToeBase  -8.718682 0.000000 -0.000000
RightUpLeg  -10.330584 -12.902143 -6.853113
RightLeg  47.972188 -0.000000 0.000000
RightFoot  23.151157 1.359090 -16.525429
RightToeBase  -13.243716 0.000000 -0.000000
Spine  -14.771631 -2.649116 -8.000291
Spine1  15.760392 1.433374 2.102664
Neck  3.815772 1.994036 -3.603758
Head  -11.937447 3.486166 2.246745
LeftShoulder  -5.528761 -8.544193 -25.698171
LeftArm  3.354192 38.707873 -36.592433
LeftForeArm  31.457486 -0.000000 0.000000
LeftHand  4.697081 -11.873215 2.477117
LeftHandThumb  0.000000 -0.000000 0.000000
RightShoulder  4.204117 6.664072 24.029522
RightArm  0.631287 -49.443357 39.586986
RightForeArm  34.947612 -0.000000 0.000000
RightHand  6.942205 10.187239 1.831684
RightHandThumb  0.000000 -0.000000 0.000000
287
root  0.743866 37.290638 -63.148986 10.659132 -5.232816 2.571740
LeftUpLeg  -23.925289 4.286239 -5.939872
LeftLeg  17.131033 -0.000000 0.000000
LeftFoot  5.864541 13.004389 9.072101
LeftToeBase  -8.748717 0.000000 -0.000000
RightUpLeg  -10.840619 -12.784106 -6.817078
RightLeg  48.823207 -0.000000 0.000000
RightFoot  23.295782 1.144466 -16.472677
RightToeBase  -13.808035 0.000000 -0.000000
Spine  -14.798985 -2.672469 -7.970396
Spine1  15.680061 1.404666 2.184100
Neck  3.950611 2.004891 -3.689488
Head  -11.870224 3.478461 2.255035
LeftShoulder  -5.641771 -8.467233 -25.627455
LeftArm  3.339858 38.549951 -36.639635
LeftForeArm  31.907031 -0.000000 0.000000
LeftHand  4.809890 -11.864499 2.463696
LeftHandThumb  0.000000 -0.000000 0.000000
RightShoulder  4.147978 6.623941 24.042903
RightArm  0.534400 -49.664500 39.621882
RightForeArm  34.570439 -0.000000 0.000000
RightHand  6.840575 9.823403 1.934913
RightHandThumb  0.000000 -0.000000 0.000000
